<?xml version="1.0" standalone="no"?>
<!DOCTYPE svg PUBLIC "-//W3C//DTD SVG 20010904//EN"
 "http://www.w3.org/TR/2001/REC-SVG-20010904/DTD/svg10.dtd">
<svg version="1.0" xmlns="http://www.w3.org/2000/svg"
 width="700.000000pt" height="700.000000pt" viewBox="0 0 700.000000 700.000000"
 preserveAspectRatio="xMidYMid meet">
<metadata>
Created by potrace 1.14, written by Peter Selinger 2001-2017
</metadata>
<g transform="translate(0.000000,700.000000) scale(0.100000,-0.100000)"
fill="#000000" stroke="none">
<path d="M3309 6416 c-2 -2 -40 -7 -84 -10 -427 -35 -890 -189 -1260 -419
-535 -333 -956 -832 -1183 -1402 -74 -187 -142 -428 -166 -587 -3 -21 -9 -55
-12 -75 -20 -122 -28 -259 -28 -438 1 -172 10 -298 30 -420 78 -474 230 -854
492 -1230 168 -240 348 -430 603 -638 82 -67 325 -221 449 -285 287 -149 638
-263 915 -297 28 -4 61 -8 75 -11 136 -24 581 -24 720 0 14 3 45 7 70 10 314
40 730 184 1015 350 33 20 67 39 75 43 20 10 191 124 210 140 8 7 44 35 80 63
151 119 297 261 440 426 54 62 170 223 227 314 205 328 335 669 408 1072 16
89 18 105 31 263 46 580 -101 1209 -395 1694 -28 46 -51 86 -51 87 0 2 -28 43
-62 91 -176 249 -391 477 -608 644 -426 328 -907 529 -1420 594 -25 3 -61 8
-80 11 -41 6 -485 15 -491 10z"/>
</g>
</svg>
