<?xml version="1.0" encoding="UTF-8" standalone="no"?>
<!DOCTYPE svg PUBLIC "-//W3C//DTD SVG 1.1//EN" "http://www.w3.org/Graphics/SVG/1.1/DTD/svg11.dtd">
<svg width="100%" height="100%" viewBox="0 0 2363 2363" version="1.1" xmlns="http://www.w3.org/2000/svg" xmlns:xlink="http://www.w3.org/1999/xlink" xml:space="preserve" xmlns:serif="http://www.serif.com/" style="fill-rule:evenodd;clip-rule:evenodd;stroke-linecap:round;stroke-linejoin:round;stroke-miterlimit:1.5;">
    <g transform="matrix(1,0,0,1,0,-2587.98)">
        <g transform="matrix(3.5954,0,0,3.10626,1715.99,1670.78)">
            <rect id="Tavola-da-disegno2" serif:id="Tavola da disegno2" x="-477.274" y="295.276" width="657.007" height="760.467" style="fill:none;"/>
            <g id="Tavola-da-disegno21" serif:id="Tavola da disegno2">
                <g transform="matrix(0.35427,0,0,0.388019,-677.64,-838.329)">
                    <ellipse cx="1492.84" cy="3901.45" rx="741.815" ry="783.948" style="fill:rgb(248,237,34);stroke:black;stroke-width:67.2px;"/>
                </g>
                <g transform="matrix(0.276773,0,0,0.30314,-561.95,-507.177)">
                    <path d="M2221.97,4046.43C2157.55,4409.94 1855.4,4685.4 1492.84,4685.4C1130.29,4685.4 828.136,4409.94 763.712,4046.43" style="fill:none;stroke:black;stroke-width:86.02px;"/>
                </g>
                <g transform="matrix(0.341026,0.00846454,-0.00547007,0.295255,-518.673,-448.439)">
                    <ellipse cx="878.808" cy="3432.47" rx="79.431" ry="168.532" style="fill:rgb(8,6,5);stroke:black;stroke-width:76.95px;"/>
                </g>
                <g transform="matrix(-0.341026,0.00846454,0.00547007,0.295255,221.126,-448.439)">
                    <ellipse cx="878.808" cy="3432.47" rx="79.431" ry="168.532" style="fill:rgb(8,6,5);stroke:black;stroke-width:76.95px;"/>
                </g>
            </g>
        </g>
    </g>
</svg>
