<?xml version="1.0" encoding="UTF-8" standalone="no"?>
<!DOCTYPE svg PUBLIC "-//W3C//DTD SVG 1.1//EN" "http://www.w3.org/Graphics/SVG/1.1/DTD/svg11.dtd">
<svg width="100%" height="100%" viewBox="0 0 2363 2363" version="1.1" xmlns="http://www.w3.org/2000/svg" xmlns:xlink="http://www.w3.org/1999/xlink" xml:space="preserve" xmlns:serif="http://www.serif.com/" style="fill-rule:evenodd;clip-rule:evenodd;stroke-linecap:round;stroke-linejoin:round;stroke-miterlimit:1.5;">
    <g transform="matrix(3.5954,0,0,3.10626,1715.99,-917.202)">
        <rect id="Tavola-da-disegno1" serif:id="Tavola da disegno1" x="-477.274" y="295.276" width="657.007" height="760.467" style="fill:none;"/>
        <g id="Tavola-da-disegno11" serif:id="Tavola da disegno1">
            <g transform="matrix(0.42862,0,0,0.533963,-651.118,43.0842)">
                <path d="M1640.98,750.302C1640.98,668.537 1569.53,602.154 1481.53,602.154L862.493,602.154C774.49,602.154 703.044,668.537 703.044,750.302L703.044,1618.5C703.044,1700.26 774.49,1766.64 862.493,1766.64L1481.53,1766.64C1569.53,1766.64 1640.98,1700.26 1640.98,1618.5L1640.98,750.302Z" style="fill:rgb(231,231,231);stroke:black;stroke-width:52.05px;"/>
            </g>
            <g transform="matrix(0.268613,-0.0013253,0.00110581,0.321928,-472.991,290.306)">
                <path d="M649.606,1719.35L1750.25,1723.88" style="fill:none;stroke:black;stroke-width:84.78px;"/>
            </g>
            <g transform="matrix(0.268613,-0.0013253,0.00110581,0.321928,-472.991,347.196)">
                <path d="M649.606,1719.35L1750.25,1723.88" style="fill:none;stroke:black;stroke-width:84.78px;"/>
            </g>
            <g transform="matrix(0.268613,-0.0013253,0.00110581,0.321928,-472.991,233.417)">
                <path d="M649.606,1719.35L1750.25,1723.88" style="fill:none;stroke:black;stroke-width:84.78px;"/>
            </g>
            <g transform="matrix(0.278133,0,0,0.321931,-477.274,272.481)">
                <path d="M1181.1,914.335C1425.55,914.335 1624.02,1112.8 1624.02,1357.25L738.189,1357.25C738.189,1112.8 936.652,914.335 1181.1,914.335ZM1181.1,914.335C1076.8,914.335 992.126,829.657 992.126,725.358C992.126,621.06 1076.8,536.382 1181.1,536.382C1285.4,536.382 1370.08,621.06 1370.08,725.358C1370.08,829.657 1285.4,914.335 1181.1,914.335Z" style="fill:none;stroke:black;stroke-width:83.33px;"/>
            </g>
        </g>
    </g>
</svg>
